<svg t="1706585008192" class="icon" viewBox="0 0 1024 1024" version="1.1" xmlns="http://www.w3.org/2000/svg" p-id="17672" width="200" height="200"><path d="M588.6 540.8L521.9 608 415.1 500.5l62.3-62.7-31.1-31.3-62.3 62.6-62.3-62.7-75.6 76.1c-73.9 73.3-81.5 190.7-17.8 273.1L126 863.2l31.1 31.3 102.3-103c35.6 31.3 80.1 44.8 124.6 44.8 53.4 0 106.8-22.4 146.8-62.7l75.6-76.1-57.8-58.2 66.7-67.2-26.7-31.3z m-88.9 197c-31.1 31.3-71.2 49.3-111.2 49.3s-80.1-13.4-106.8-44.8l-4.4-4.5c-57.8-58.2-57.8-156.7 4.4-219.4l40-40.3 218 219.4-40 40.3z m391.4-577.6L860 128.8l-97.9 94C726.5 191.5 682 178 637.5 178c-53.4 0-106.8 22.4-146.8 62.7l-75.6 71.6 289.1 291 71.2-71.6c73.9-73.3 81.5-190.7 17.8-273.1l97.9-98.4zM739.9 496l-35.6 35.8-218-219.4 35.6-35.8c31.1-31.3 71.2-49.3 111.2-49.3s80.1 13.4 106.8 44.8l4.4 4.5c62.3 58.2 57.8 156.7-4.4 219.4z m0 0" fill="#707070" p-id="17673"></path></svg>
