<?xml version="1.0" standalone="no"?><!DOCTYPE svg PUBLIC "-//W3C//DTD SVG 1.1//EN" "http://www.w3.org/Graphics/SVG/1.1/DTD/svg11.dtd"><svg t="1720360131356" class="icon" viewBox="0 0 1024 1024" version="1.1" xmlns="http://www.w3.org/2000/svg" p-id="4403" xmlns:xlink="http://www.w3.org/1999/xlink" width="200" height="200"><path d="M504.700196 646.145405a323.072702 323.072702 0 1 1 323.072702-323.072703 323.306813 323.306813 0 0 1-323.072702 323.072703z m0-547.81893a224.746228 224.746228 0 1 0 224.746227 224.746227 224.980338 224.980338 0 0 0-224.746227-224.746227z" fill="#426DF2" p-id="4404"></path><path d="M54.271298 1024h-7.491541A49.163237 49.163237 0 0 1 5.10806 967.111111 504.040238 504.040238 0 0 1 504.700196 547.81893a49.163237 49.163237 0 1 1 0 98.326475A405.245542 405.245542 0 0 0 102.966314 983.264746a49.397348 49.397348 0 0 1-48.695016 40.735254zM977.135495 778.183813H643.059592a42.139918 42.139918 0 0 1 0-84.279835h231.769547l-12.407864-12.407865a42.608139 42.608139 0 0 1 60.166438-59.932327l84.748057 84.748057a43.07636 43.07636 0 0 1 0 60.166438 46.822131 46.822131 0 0 1-30.200275 11.705532zM728.041759 1004.568816a42.84225 42.84225 0 0 1-29.732053-12.407865L613.79576 906.710562a42.608139 42.608139 0 0 1 0-59.932327 41.437586 41.437586 0 0 1 29.732053-12.407865h333.607682a42.139918 42.139918 0 0 1 0 84.279836h-231.769547l12.407865 12.173754a43.07636 43.07636 0 0 1 0 60.166438 38.394147 38.394147 0 0 1-29.732054 13.578418z" fill="#426DF2" p-id="4405"></path></svg>
