<svg id="图层_1" data-name="图层 1" xmlns="http://www.w3.org/2000/svg" viewBox="0 0 400 400"><defs></defs><title>【icon】dataease嵌入式-转曲-蓝色</title><rect class="cls-1" x="75.2979" y="155.6667" width="162.0213" height="144.0567" transform="translate(312.617 455.3901) rotate(180)"/><circle class="cls-1" cx="326.9309" cy="312.0319" r="61.9998"/><path class="cls-1" d="M323.2129,250.1531a62.1168,62.1168,0,0,0-57.051,49.57h57.051Z"/><path class="cls-1" d="M323.2129,239.126V155.6666H262.9575V276.9114A73.0847,73.0847,0,0,1,323.2129,239.126Z"/><path class="cls-2" d="M292.386,331.6791,314.612,311.04a5.6074,5.6074,0,0,0,1.7916-4.0591l.27-30.3295a4.2855,4.2855,0,0,1,7.6823-2.5744l38.9549,50.652a5.6073,5.6073,0,0,1-3.975,9.006L295.6612,339.09A4.2855,4.2855,0,0,1,292.386,331.6791Z"/><path class="cls-1" d="M255.9575,329.064H46.5742V124H353.4258V244.03a73.1048,73.1048,0,0,1,22,13.5008V58.8887H24.5742V351.064H265.2891A72.5789,72.5789,0,0,1,255.9575,329.064Z"/></svg>
