<svg width="1em" height="1em" viewBox="0 0 16 16" xmlns="http://www.w3.org/2000/svg" xmlns:xlink="http://www.w3.org/1999/xlink" fill="currentColor" aria-hidden="true" focusable="false" class=""><title>报表设计器嵌入</title><g id="\u62A5\u8868\u8BBE\u8BA1\u5668\u5D4C\u5165" stroke="none" stroke-width="1" fill="none" fill-rule="evenodd"><path d="M12,8 C14.212,8 16,9.788 16,12 C16,14.212 14.212,16 12,16 C9.788,16 8,14.212 8,12 C8,9.788 9.788,8 12,8 Z M13.5361702,1 C13.9446809,1 14.2851064,1.1314554 14.5574468,1.3943662 C14.8297872,1.657277 14.977305,1.98591549 15,2.38028169 L15.0011995,8.00053506 C14.6932946,7.76911471 14.3578,7.57242293 14.0005324,7.41627634 L14,3 L1,3 L1,13 L7.10025909,13.0011864 C7.17090075,13.3487592 7.27759808,13.6832328 7.41627634,14.0005324 L1.46382979,14 C1.05531915,14 0.714893617,13.8685446 0.442553191,13.6056338 C0.170212766,13.342723 0.0226950355,13.0140845 0,12.6197183 L0,2.38028169 C0.0226950355,1.98591549 0.170212766,1.657277 0.442553191,1.3943662 C0.714893617,1.1314554 1.05531915,1 1.46382979,1 L13.5361702,1 Z M12.452,10.724 L10.028,13.148 L10.028,13.972 L10.852,13.972 L13.276,11.548 L12.452,10.724 Z M6,4 L8.4,6.4 L8.39855088,8.53162582 C7.53254287,9.43065002 7,10.653134 7,12 L2.8,12 C2.356,12 2,11.64 2,11.2 L2,4.8 C2,4.356 2.356,4 2.8,4 L6,4 Z M13.24,10.028 C13.184,10.028 13.128,10.048 13.088,10.092 L12.688,10.492 L13.508,11.312 L13.908,10.912 C14,10.828 14,10.688 13.908,10.6 L13.4,10.092 C13.352,10.048 13.296,10.028 13.24,10.028 Z M6.4,9.6 L2.8,9.6 L2.8,10.4 L6.4,10.4 L6.4,9.6 Z M7.6,8 L2.8,8 L2.8,8.8 L7.6,8.8 L7.6,8 Z M5.6,4.6 L5.6,6.8 L7.8,6.8 L5.6,4.6 Z" id="\u5F62\u72B6" fill="#494D76" fill-rule="nonzero"></path></g></svg>
