<svg id="图层_1" data-name="图层 1" xmlns="http://www.w3.org/2000/svg" viewBox="0 0 400 400"><defs></defs><title>【icon】dataease嵌入式-转曲-蓝色</title><path class="cls-1" d="M342.0107,331.5107H57.9893a33.4526,33.4526,0,0,1-33.4146-33.415V101.9043a33.4526,33.4526,0,0,1,33.4146-33.415H342.0107a33.4526,33.4526,0,0,1,33.4146,33.415V298.0957A33.4526,33.4526,0,0,1,342.0107,331.5107ZM57.9893,90.4893a11.4277,11.4277,0,0,0-11.4146,11.415V298.0957a11.4277,11.4277,0,0,0,11.4146,11.415H342.0107a11.4277,11.4277,0,0,0,11.4146-11.415V101.9043a11.4277,11.4277,0,0,0-11.4146-11.415Z"/><rect class="cls-1" x="149.8298" y="349.766" width="100.3404" height="27.5745" rx="13.7872"/><rect class="cls-1" x="76.0426" y="118.9894" width="162.0213" height="162.0213" transform="translate(314.1064 400) rotate(180)"/><rect class="cls-1" x="263.7021" y="118.9894" width="60.2553" height="162.0213" transform="translate(587.6596 400) rotate(180)"/></svg>
