<svg id="图层_1" data-name="图层 1" xmlns="http://www.w3.org/2000/svg" viewBox="0 0 400 400"><defs></defs><title>【icon】dataease嵌入式-转曲-蓝色</title><rect class="cls-1" x="76.0423" y="120.0106" width="162.0213" height="162.0213" transform="translate(314.1059 402.0426) rotate(180)"/><circle class="cls-1" cx="326.9309" cy="313.266" r="61.9998"/><path class="cls-1" d="M253.9307,313.2656c0-.9167.0356-1.8247.0693-2.7334H57.9893a11.4284,11.4284,0,0,1-11.4151-11.415V102.9258A11.4284,11.4284,0,0,1,57.9893,91.5107H342.0107a11.4276,11.4276,0,0,1,11.4141,11.4151V245.2637a73.1071,73.1071,0,0,1,22,13.5V102.9258a33.4525,33.4525,0,0,0-33.4141-33.4151H57.9893a33.4534,33.4534,0,0,0-33.4151,33.4151V299.1172a33.4533,33.4533,0,0,0,33.4151,33.415H256.53A72.7876,72.7876,0,0,1,253.9307,313.2656Z"/><path class="cls-1" d="M323.9573,240.3411v-120.33H263.7019V276.8523A73.0432,73.0432,0,0,1,323.9573,240.3411Z"/><path class="cls-2" d="M292.386,332.9131l22.226-20.6386a5.6076,5.6076,0,0,0,1.7916-4.0591l.27-30.3295a4.2855,4.2855,0,0,1,7.6823-2.5745l38.9549,50.652a5.6073,5.6073,0,0,1-3.975,9.006l-63.6744,5.3545A4.2855,4.2855,0,0,1,292.386,332.9131Z"/></svg>
