<svg width="1em" height="1em" viewBox="0 0 90 90" xmlns="http://www.w3.org/2000/svg" xmlns:xlink="http://www.w3.org/1999/xlink" fill="currentColor" aria-hidden="true" focusable="false" class=""><title>card data dashboard</title><g id="card-data-dashboard" stroke="none" stroke-width="1" fill="none" fill-rule="evenodd"><g id="\u7F16\u7EC4-9"><circle id="\u692D\u5706\u5F62\u5907\u4EFD" fill="#F0F8FF" cx="45" cy="45" r="45"></circle><path d="M26.4705882,63.5294118 L26.4705882,60.6657917 L63.6976494,60.6657917 L63.6976494,63.5294118 L26.4705882,63.5294118 Z M57.9704093,27.3529412 C61.1334767,27.3529412 63.6976494,30.0196809 63.6976494,33.309271 L63.6976494,51.1782604 C63.6976494,54.4678505 61.1334767,57.1345901 57.9704093,57.1345901 L32.1978284,57.1345901 C29.034761,57.1345901 26.4705882,54.4678505 26.4705882,51.1782604 L26.4705882,33.309271 C26.4705882,30.0196809 29.034761,27.3529412 32.1978284,27.3529412 L57.9704093,27.3529412 Z M55.9056198,30.1449708 L34.2626178,30.1449708 C31.5011941,30.1449708 29.2626178,32.383547 29.2626178,35.1449708 L29.2626178,49.3425605 C29.2626178,52.1039843 31.5011941,54.3425605 34.2626178,54.3425605 L55.9056198,54.3425605 C58.6670436,54.3425605 60.9056198,52.1039843 60.9056198,49.3425605 L60.9056198,35.1449708 C60.9056198,32.383547 58.6670436,30.1449708 55.9056198,30.1449708 Z M57.3833671,35.4541224 L58.0591815,37.9282902 L59.4022193,42.8766257 L56.8908245,43.5395537 L56.0933063,40.6157976 L48.2512827,48.3189357 L47.9033528,47.9781649 L47.8675576,48.0082329 L39.9568071,41.0997494 L32.6087579,48.3189357 L30.7660184,46.507696 L39.9811478,37.447202 L41.826751,39.264169 L41.7952512,39.2956688 L48.1238516,44.8224556 L54.0744541,38.9778069 L50.5049517,39.9170743 L49.8305692,37.4429066 L54.8662451,36.1170505 L57.3833671,35.4541224 Z" id="\u5F62\u72B6\u7ED3\u5408" fill="#2583DF" fill-rule="nonzero"></path></g></g></svg>
