<svg id="图层_1" data-name="图层 1" xmlns="http://www.w3.org/2000/svg" viewBox="0 0 400 400"><defs></defs><title>【icon】dataease嵌入式-转曲-蓝色</title><circle class="cls-1" cx="327.7465" cy="312.0319" r="61.9996"/><path class="cls-1" d="M256.7729,329.064H47.39V124H354.2412V244.03a73.1048,73.1048,0,0,1,22,13.5008V58.8887H25.39V351.064H266.1045A72.5814,72.5814,0,0,1,256.7729,329.064Z"/><path class="cls-2" d="M293.2016,331.6791l22.226-20.6387a5.6074,5.6074,0,0,0,1.7916-4.0591l.27-30.3295a4.2855,4.2855,0,0,1,7.6823-2.5744l38.9549,50.652a5.6073,5.6073,0,0,1-3.975,9.006L296.4768,339.09A4.2855,4.2855,0,0,1,293.2016,331.6791Z"/><rect class="cls-1" x="150.0532" y="266.8231" width="32.6809" height="48.9452" rx="16.3404"/><rect class="cls-1" x="222.734" y="220.8591" width="32.6809" height="94.9091" rx="16.3404"/><rect class="cls-1" x="77.3723" y="282.8085" width="32.6809" height="32.9597" rx="16.3404"/><circle class="cls-1" cx="133.6489" cy="193.5722" r="56.2766"/><path class="cls-3" d="M133.6489,193.5722h56.2766a56.2766,56.2766,0,1,1-90.199-44.9035Z"/></svg>
