<svg id="图层_1" data-name="图层 1" xmlns="http://www.w3.org/2000/svg" viewBox="0 0 400 400"><defs></defs><title>【icon】dataease嵌入式-转曲-蓝色</title><path class="cls-1" d="M342.0107,331.5107H57.9893a33.453,33.453,0,0,1-33.4151-33.415V101.9043a33.453,33.453,0,0,1,33.4151-33.415H342.0107a33.453,33.453,0,0,1,33.4151,33.415V298.0957A33.453,33.453,0,0,1,342.0107,331.5107ZM57.9893,90.4893a11.4281,11.4281,0,0,0-11.4151,11.415V298.0957a11.4281,11.4281,0,0,0,11.4151,11.415H342.0107a11.4281,11.4281,0,0,0,11.4151-11.415V101.9043a11.4281,11.4281,0,0,0-11.4151-11.415Z"/><rect class="cls-1" x="149.8298" y="349.766" width="100.3404" height="27.5745" rx="13.7872"/><rect class="cls-1" x="147.3191" y="240.2912" width="32.6809" height="48.9452" rx="16.3404"/><rect class="cls-1" x="220" y="194.3272" width="32.6809" height="94.9091" rx="16.3404"/><rect class="cls-1" x="292.6809" y="237.5613" width="32.6809" height="51.6751" rx="16.3404"/><rect class="cls-1" x="74.6383" y="256.2766" width="32.6809" height="32.9597" rx="16.3404"/><circle class="cls-1" cx="130.9149" cy="167.0403" r="56.2766"/><path class="cls-2" d="M130.9149,167.04h56.2766a56.2766,56.2766,0,1,1-90.1991-44.9035Z"/></svg>
