<svg id="图层_1" data-name="图层 1" xmlns="http://www.w3.org/2000/svg" viewBox="0 0 400 400"><defs></defs><title>【icon】dataease嵌入式-转曲-蓝色</title><rect class="cls-1" x="148.1348" y="259.4827" width="32.6809" height="48.9452" rx="16.3404"/><rect class="cls-1" x="220.8156" y="213.5187" width="32.6809" height="94.9091" rx="16.3404"/><rect class="cls-1" x="75.4539" y="275.4681" width="32.6809" height="32.9597" rx="16.3404"/><circle class="cls-1" cx="131.7305" cy="186.2317" r="56.2766"/><path class="cls-2" d="M131.7305,186.2317h56.2766A56.2766,56.2766,0,1,1,97.808,141.3283Z"/><circle class="cls-1" cx="331.3351" cy="313.266" r="62.0003"/><path class="cls-1" d="M342.8262,350.7021a33.4532,33.4532,0,0,0,33.415-33.415V270.585a62.202,62.202,0,0,0-22-14.9148v61.6169a11.4283,11.4283,0,0,1-11.415,11.415H271.281a61.8013,61.8013,0,0,0,10.6741,22Z"/><path class="cls-1" d="M259.9927,328.7021H58.8047A11.4283,11.4283,0,0,1,47.39,317.2871V121.0957a11.4284,11.4284,0,0,1,11.4151-11.415H342.8262a11.4284,11.4284,0,0,1,11.415,11.415V243.9675a72.8866,72.8866,0,0,1,22,11.8081v-134.68a33.4532,33.4532,0,0,0-33.415-33.415H58.8047A33.4533,33.4533,0,0,0,25.39,121.0957V317.2871a33.4533,33.4533,0,0,0,33.4151,33.415H268.6953A72.53,72.53,0,0,1,259.9927,328.7021Z"/><path class="cls-3" d="M296.79,332.9131l22.226-20.6386a5.6072,5.6072,0,0,0,1.7916-4.0591l.27-30.3295a4.2855,4.2855,0,0,1,7.6824-2.5745l38.9549,50.652a5.6073,5.6073,0,0,1-3.975,9.006l-63.6745,5.3545A4.2855,4.2855,0,0,1,296.79,332.9131Z"/></svg>
