<svg t="1726041677092" class="icon" viewBox="0 0 1024 1024" version="1.1" xmlns="http://www.w3.org/2000/svg" p-id="3376" width="200" height="200"><path d="M860.16 622.08l140.16 74.24c19.2 10.24 26.24 33.28 16.64 52.48-3.84 7.04-9.6 12.8-16.64 16l-469.76 251.52c-11.52 5.76-25.6 5.76-37.12 0L23.68 764.8a39.872 39.872 0 0 1-16.64-53.12c3.84-7.04 9.6-12.16 16.64-16l140.16-74.24L23.68 546.56a39.872 39.872 0 0 1-16.64-53.12c3.84-6.4 9.6-11.52 16.64-15.36L163.84 403.2 23.68 327.68a38.784 38.784 0 0 1-16.64-51.84V275.2c3.84-7.04 9.6-12.8 16.64-16L493.44 7.04c11.52-6.4 25.6-6.4 37.12 0l469.76 251.52c19.2 10.24 26.24 33.28 16.64 52.48-3.84 6.4-9.6 12.16-16.64 16L860.16 403.2l140.16 74.88c19.2 10.24 26.24 33.28 16.64 52.48-3.84 7.04-9.6 12.16-16.64 16l-140.16 75.52zM512 719.36L899.84 512l-121.6-65.28-247.68 132.48a31.36 31.36 0 0 1-12.16 4.48h-1.28l-3.2 0.64h-3.2l-3.2-0.64h-1.28a30.72 30.72 0 0 1-12.8-4.48L246.4 446.72 124.8 512C253.44 581.76 383.36 650.24 512 719.36z" p-id="3377"></path></svg>
