<svg t="1706538832186" class="icon" viewBox="0 0 1024 1024" version="1.1" xmlns="http://www.w3.org/2000/svg" p-id="11540" width="200" height="200"><path d="M211.777829 350.72c-46.723657-96.621714-61.264457-170.452114-43.593143-221.505829 26.199771-55.676343 73.962057-40.565029 81.320228-36.498285 15.1552 6.685257 369.444571 161.206857 463.520915 191.224685 94.061714 30.032457 173.494857 80.603429 143.711085 183.149715-7.533714 21.109029-32.958171 69.485714-76.258743 145.173943 28.145371 8.016457 42.218057 29.608229 42.218058 64.789942 0 52.765257-162.464914 237.962971-177.590858 257.389715-15.886629 21.182171-45.421714 17.905371-61.147428 11.893028-15.725714-5.997714-29.461943-27.911314-27.940572-44.544 2.311314-25.4976 5.280914-60.123429 8.923429-103.862857-34.450286-9.918171-51.682743-25.614629-51.682743-47.104V706.121143c-51.4048 6.3488-94.793143-5.792914-130.179657-36.425143-53.057829-45.9776-64.585143-73.581714-74.839771-116.604343-27.574857-17.261714-69.778286-54.3744-92.116115-107.300571-8.850286-24.576-15.579429-42.071771-10.591085-73.918172 0.6144-3.949714 2.691657-11.000686 6.2464-21.167543z m112.157257-170.057143c-30.837029-13.663086-75.6736-43.008-103.350857-34.903771-27.662629 8.0896 0.453486 115.463314 31.232 169.764571 20.509257 36.191086 95.173486 67.949714 223.992685 95.275886-113.283657-20.494629-178.336914-30.749257-195.145143-30.749257-25.219657 0-34.947657 17.642057-28.847542 37.200457 17.261714 39.394743 42.861714 74.869029 98.596571 99.810743 23.157029 11.278629 101.4784 11.922286 144.106057 11.922285-41.047771 0-113.898057 2.911086-127.210057 12.960915-26.5216 27.706514 45.494857 86.484114 75.746743 105.691428 30.251886 19.221943 89.2928 15.535543 112.9472 0 13.780114-8.747886 23.698286-0.438857 22.776686 6.173257-0.702171 3.086629-8.469943 38.341486-13.4144 60.342858-5.339429 23.771429-0.365714 35.796114 14.935771 36.103314h44.558629c1.623771 0 4.827429 2.589257 4.256914 7.094857-9.1136 57.607314-20.714057 121.826743-21.065143 125.352229-0.365714 3.510857 3.978971 6.290286 8.338286 0 72.2944-88.7808 130.033371-161.543314 148.421485-187.845486 9.581714-15.594057 0-31.685486-11.615085-31.685486h-60.2112c75.117714-132.9152 114.0736-202.459429 116.896914-208.632686 10.357029-24.078629 3.598629-83.792457-63.707429-103.818971-67.306057-20.041143-391.402057-156.379429-422.239085-170.057143z" p-id="11541"></path></svg>
