<svg id="图层_1" data-name="图层 1" xmlns="http://www.w3.org/2000/svg" viewBox="0 0 400 400"><defs></defs><title>【icon】dataease嵌入式-转曲-蓝色</title><rect class="cls-1" x="74.383" y="152.9681" width="141.5957" height="62.2979"/><rect class="cls-1" x="243.4043" y="152.9681" width="79.8085" height="62.2979"/><rect class="cls-1" x="74.383" y="239.266" width="79.8085" height="62.2979" transform="translate(228.5745 540.8298) rotate(-180)"/><circle class="cls-1" cx="324.1968" cy="312.0319" r="62"/><path class="cls-1" d="M318.6235,239.2659H181.6169v62.2979h70.3416A73.1149,73.1149,0,0,1,318.6235,239.2659Z"/><path class="cls-1" d="M350.6914,255.9914V329.064H264.5948a61.8828,61.8828,0,0,0,11.4765,22h96.251c.1255-.1545.2451-.3138.3691-.4694V273.4689A62.3646,62.3646,0,0,0,350.6914,255.9914Z"/><path class="cls-1" d="M253.2236,329.064H43.84V124H350.6914V244.03a73.1059,73.1059,0,0,1,22,13.5V58.8887H21.84V351.064H262.5552A72.5764,72.5764,0,0,1,253.2236,329.064Z"/><path class="cls-2" d="M289.6519,331.6791l22.226-20.6387a5.607,5.607,0,0,0,1.7916-4.0591l.27-30.3295a4.2855,4.2855,0,0,1,7.6824-2.5744l38.9549,50.652a5.6073,5.6073,0,0,1-3.975,9.006L292.9271,339.09A4.2855,4.2855,0,0,1,289.6519,331.6791Z"/></svg>
