<svg width="1em" height="1em" viewBox="0 0 90 90" xmlns="http://www.w3.org/2000/svg" xmlns:xlink="http://www.w3.org/1999/xlink" fill="currentColor" aria-hidden="true" focusable="false" class=""><title>card scene experience</title><g id="card-scene-experience" stroke="none" stroke-width="1" fill="none" fill-rule="evenodd"><g id="\u7F16\u7EC4-6"><circle id="\u692D\u5706\u5F62" fill="#EBFAFF" cx="45" cy="45" r="45"></circle><path d="M47.013256,39.4759735 L58.011599,39.4759735 L47.013256,28.5708368 L47.013256,39.4759735 Z M33.1255178,25.5882353 L49.0637945,25.5882353 L60.9942005,37.5186413 L60.9942005,61.3794532 C60.932063,62.4979287 60.528169,63.4299917 59.7825186,64.1756421 C59.0368683,64.9212925 58.1048053,65.2941176 56.9863297,65.2941176 L33.1255178,65.2941176 C32.0070423,65.2941176 31.0749793,64.9212925 30.3293289,64.1756421 C29.5836785,63.4299917 29.1797846,62.4979287 29.1176471,61.3794532 L29.1176471,29.5028998 C29.1797846,28.3844242 29.5836785,27.4523612 30.3293289,26.7067109 C31.0749793,25.9610605 32.0070423,25.5882353 33.1255178,25.5882353 Z M35.08285,61.3794532 L39.0907208,61.3794532 L39.0907208,49.4490472 L35.08285,49.4490472 L35.08285,61.3794532 Z M43.0985915,61.3794532 L47.013256,61.3794532 L47.013256,45.4411765 L43.0985915,45.4411765 L43.0985915,61.3794532 Z M51.0211268,61.3794532 L55.0289975,61.3794532 L55.0289975,53.3637117 L51.0211268,53.3637117 L51.0211268,61.3794532 Z" id="\u5F62\u72B6" fill="#5AA9C2" fill-rule="nonzero"></path></g></g></svg>
