<svg width="1em" height="1em" viewBox="0 0 90 90" xmlns="http://www.w3.org/2000/svg" xmlns:xlink="http://www.w3.org/1999/xlink" fill="currentColor" aria-hidden="true" focusable="false" class=""><title>card technical solutions</title><g id="card-technical-solutions" stroke="none" stroke-width="1" fill="none" fill-rule="evenodd"><g id="\u7F16\u7EC4-7"><circle id="\u692D\u5706\u5F62\u5907\u4EFD" fill="#F3F6FF" cx="45" cy="45" r="45"></circle><path d="M40.6669428,40.5509528 L43.3181442,43.2021541 L38.0157415,48.5045568 L43.3181442,53.8069594 L40.6669428,56.4581607 L32.7133389,48.5045568 L40.6669428,40.5509528 Z M49.4490472,56.4581607 L46.7978459,53.8069594 L52.1002486,48.5045568 L46.7978459,43.2021541 L49.4490472,40.5509528 L57.4026512,48.5045568 L49.4490472,56.4581607 Z M60.965203,29.1176471 L29.1507871,29.1176471 C28.1565866,29.1176471 27.3280862,29.4490472 26.6652858,30.1118476 C26.0024855,30.7746479 25.6434687,31.6031483 25.5882353,32.5973488 L25.5882353,60.932063 C25.6434687,61.9262635 26.0024855,62.7547639 26.6652858,63.4175642 C27.3280862,64.0803645 28.1565866,64.4117647 29.1507871,64.4117647 L60.965203,64.4117647 C61.9594035,64.4117647 62.7879039,64.0803645 63.4507042,63.4175642 C64.1135046,62.7547639 64.4725214,61.9262635 64.5277548,60.932063 L64.5277548,32.5973488 C64.4725214,31.6031483 64.1135046,30.7746479 63.4507042,30.1118476 C62.7879039,29.4490472 61.9594035,29.1176471 60.965203,29.1176471 Z M60.965203,60.932063 L29.1507871,60.932063 L29.1507871,36.1599006 L60.965203,36.1599006 L60.965203,60.932063 Z" id="\u5F62\u72B6" fill="#150c92" fill-rule="nonzero"></path></g></g></svg>
