<svg id="图层_1" data-name="图层 1" xmlns="http://www.w3.org/2000/svg" viewBox="0 0 400 400"><defs></defs><title>【icon】dataease嵌入式-转曲-蓝色</title><path class="cls-1" d="M328.189,361.1709H71.811A30.2351,30.2351,0,0,1,41.61,330.97V140.3022a30.2178,30.2178,0,0,1,15.5258-26.3955l128.188-71.2719a30.0187,30.0187,0,0,1,29.3511,0l128.189,71.2729a30.217,30.217,0,0,1,15.5253,26.395V330.97A30.2351,30.2351,0,0,1,328.189,361.1709ZM200,60.8223a8.1885,8.1885,0,0,0-3.9858,1.0405l-128.188,71.272a8.2053,8.2053,0,0,0-4.2158,7.1674V330.97a8.21,8.21,0,0,0,8.2006,8.2012H328.189A8.21,8.21,0,0,0,336.39,330.97V140.3022a8.2044,8.2044,0,0,0-4.2153-7.1669L203.9854,61.8623A8.1919,8.1919,0,0,0,200,60.8223Z"/><polygon class="cls-1" points="283.73 295.523 116.27 295.523 116.27 169.884 200 123.33 283.73 169.884 283.73 295.523"/></svg>
