<svg id="图层_1" data-name="图层 1" xmlns="http://www.w3.org/2000/svg" viewBox="0 0 400 400"><defs></defs><title>【icon】dataease嵌入式-转曲-蓝色</title><circle class="cls-1" cx="322.5266" cy="313.266" r="62.0003"/><path class="cls-1" d="M371.021,299.1172V274.7029a62.3659,62.3659,0,0,0-22-17.4776v41.8919a11.4281,11.4281,0,0,1-11.415,11.415h-77.01c-.04.9073-.0693,1.8167-.0693,2.7334a61.7336,61.7336,0,0,0,3.08,19.2666H337.606A33.4529,33.4529,0,0,0,371.021,299.1172Z"/><path class="cls-1" d="M249.5264,313.2656c0-.9167.0356-1.8247.0693-2.7334H53.585A11.4281,11.4281,0,0,1,42.17,299.1172V102.9258A11.4281,11.4281,0,0,1,53.585,91.5107H337.606a11.4281,11.4281,0,0,1,11.415,11.4151V245.2637a73.1059,73.1059,0,0,1,22,13.5005V102.9258a33.453,33.453,0,0,0-33.415-33.4151H53.585A33.4531,33.4531,0,0,0,20.17,102.9258V299.1172a33.453,33.453,0,0,0,33.4151,33.415H252.1257A72.8,72.8,0,0,1,249.5264,313.2656Z"/><path class="cls-2" d="M287.9817,332.9131l22.226-20.6386a5.6072,5.6072,0,0,0,1.7916-4.0591l.27-30.3295a4.2855,4.2855,0,0,1,7.6824-2.5745l38.9549,50.652a5.6074,5.6074,0,0,1-3.975,9.006l-63.6745,5.3545A4.2855,4.2855,0,0,1,287.9817,332.9131Z"/><path class="cls-1" d="M133.2417,263.667a13.9574,13.9574,0,0,1-9.8994-4.1006L80.3262,216.5508a14,14,0,0,1-1.5733-17.9229L118.1411,142.31a14,14,0,1,1,22.9453,16.0468l-32.6592,46.6973,34.7139,34.7139a14,14,0,0,1-9.8994,23.8994Z"/><path class="cls-1" d="M255.0415,263.667a14,14,0,0,1-9.8994-23.8994l34.7134-34.7139-32.6587-46.6973A14,14,0,0,1,270.1421,142.31L309.53,198.6279a14,14,0,0,1-1.5733,17.9229l-43.0156,43.0156A13.9566,13.9566,0,0,1,255.0415,263.667Z"/><path class="cls-1" d="M168.9126,273.3369a14.0088,14.0088,0,0,1-12.9478-19.3154l51.6665-126a14,14,0,0,1,25.9063,10.623l-51.6665,126A14.0052,14.0052,0,0,1,168.9126,273.3369Z"/></svg>
