<svg t="1706538853984" class="icon" viewBox="0 0 1024 1024" version="1.1" xmlns="http://www.w3.org/2000/svg" p-id="13398" width="200" height="200"><path d="M823.552 371.392c-25.28 0-52.928 3.456-81.536 12.48-33.088-95.36-99.84-190.08-99.84-190.08l-1.408-1.472a54.848 54.848 0 0 0-25.472-14.464 230.08 230.08 0 0 0-15.744-0.64H238.272c-1.792 10.624 5.056 11.328 5.056 11.328 140.8 109.44 246.528 253.12 302.016 345.792-35.008 33.728-63.872 60.032-91.776 80.32-243.328-119.36-340.48-238.848-340.48-238.848s-4.864-3.84-7.296-3.84h-0.32c-3.968 0-3.84 3.84-3.84 3.84v349.248c0 12.992 5.12 25.344 14.336 34.432 30.144 29.632 111.104 87.36 274.496 87.36 13.056 0 26.688-0.384 40.832-1.152 261.12-14.528 358.784-166.72 383.36-215.04 40.064-67.52 91.008-169.792 108.416-193.792 23.744-32.64 31.552-32.896 31.744-32.896-4.224-4.16-58.368-32.576-131.2-32.576z m-205.76 91.52l-1.344 1.28-25.344 24.64a1435.648 1435.648 0 0 0-183.168-235.776c-4.16-4.416-8.448-8.704-12.672-12.992H597.76c8.768 13.184 24.832 38.4 41.6 69.056 20.224 36.928 35.456 71.04 45.312 100.736-17.152 10.24-34.432 22.912-51.392 38.656l-7.68 7.424a245.76 245.76 0 0 0-7.68 7.04z m-190.08 320c-12.672 0.64-25.216 1.024-37.376 1.024-63.168 0-118.144-9.472-163.456-27.904-32-12.992-51.84-27.712-62.528-37.248V508.8c67.136 53.248 170.624 122.496 317.824 188.672 50.048 23.936 92.8 36.48 128.896 41.472a340.352 340.352 0 0 1-12.8 5.952c-49.792 21.696-107.2 34.432-170.56 37.888z m391.296-289.6c-25.984 48.192-58.24 108.16-78.976 137.92-1.664 2.432-2.816 4.416-3.456 5.44-1.472 2.56-7.232 11.84-19.2 20.928-14.976 11.52-33.728 18.368-55.808 20.48-40.128-0.384-88.192-9.344-144.32-33.536 35.008-28.928 72.192-65.344 118.592-110.912l32.448-31.872c19.584-17.472 37.12-31.36 55.36-41.984a205.056 205.056 0 0 1 126.464-23.872c-8.192 14.912-18.368 33.856-31.104 57.408z" p-id="13399"></path></svg>
