<svg t="1706458258994" class="icon" viewBox="0 0 1024 1024" version="1.1" xmlns="http://www.w3.org/2000/svg" p-id="14409" width="200" height="200"><path d="M724.350707 63.353535H297.787475C253.310707 63.353535 217.212121 99.555556 217.212121 143.928889v736.245656c0 44.476768 36.20202 80.575354 80.575354 80.575354h426.563232c44.476768 0 80.575354-36.20202 80.575354-80.575354V143.928889c0-44.476768-36.098586-80.575354-80.575354-80.575354zM297.787475 104.727273h426.563232c21.617778 0 39.201616 17.583838 39.201616 39.201616V179.717172H258.585859v-35.788283C258.585859 122.311111 276.169697 104.727273 297.787475 104.727273zM258.585859 221.090909h505.069899v527.72202H258.585859V221.090909z m465.764848 698.285253H297.787475c-21.617778 0-39.201616-17.583838-39.201616-39.201617v-89.987878h505.069899v89.987878c-0.103434 21.617778-17.687273 39.201616-39.305051 39.201617z m0 0" p-id="14410"></path><path d="M435.975758 149.721212h150.083232c8.274747 0 14.99798-6.723232 14.99798-14.99798 0-8.274747-6.723232-14.99798-14.99798-14.997979H435.975758c-8.274747 0-14.99798 6.723232-14.99798 14.997979 0 8.274747 6.723232 14.99798 14.99798 14.99798z m0 0M457.490101 855.660606c0 19.135354 10.214141 36.822626 26.789495 46.403232 16.575354 9.567677 37.003636 9.567677 53.57899 0a53.575111 53.575111 0 0 0 26.789495-46.403232c0-29.595152-23.983838-53.57899-53.57899-53.57899-29.595152 0-53.57899 23.983838-53.57899 53.57899z m0 0"  p-id="14411"></path></svg>
