<svg width="1em" height="1em" viewBox="0 0 90 90" xmlns="http://www.w3.org/2000/svg" xmlns:xlink="http://www.w3.org/1999/xlink" fill="currentColor" aria-hidden="true" focusable="false" class=""><title>card system extension</title><g id="card-system-extension" stroke="none" stroke-width="1" fill="none" fill-rule="evenodd"><g id="\u7F16\u7EC4-8"><circle id="\u692D\u5706\u5F62\u5907\u4EFD-2" fill="#FFF7F3" cx="45" cy="45" r="45"></circle><path d="M64.4117647,47.9163215 C64.4117647,49.6782657 63.8649544,51.1668048 62.7713339,52.3819387 C61.6777133,53.5970726 60.2803093,54.3565313 58.5791218,54.6603148 L58.5791218,60.5840928 C58.5791218,61.6777133 58.2145816,62.5890638 57.4855012,63.3181442 C56.7564209,64.0472245 55.8450704,64.4117647 54.7514499,64.4117647 L47.3695112,64.4117647 L47.3695112,63.8649544 C47.3087545,62.346037 46.7771334,61.1005247 45.7746479,60.1284176 C44.7721624,59.1563104 43.5266501,58.6702568 42.038111,58.6702568 C40.5495719,58.6702568 39.3192488,59.1563104 38.3471417,60.1284176 C37.3750345,61.1005247 36.8586026,62.346037 36.7978459,63.8649544 L36.7978459,64.4117647 L29.4159072,64.4117647 C28.3222867,64.4117647 27.4109362,64.0472245 26.6818558,63.3181442 C25.9527755,62.5890638 25.5882353,61.6777133 25.5882353,60.5840928 L25.5882353,53.2021541 L26.1350456,53.2021541 C27.653963,53.1413974 28.8994753,52.6249655 29.8715824,51.6528583 C30.8436896,50.6807512 31.3297432,49.4352389 31.3297432,47.9163215 C31.3297432,46.397404 30.8436896,45.1518917 29.8715824,44.1797846 C28.8994753,43.2076774 27.653963,42.6912455 26.1350456,42.6304888 L25.5882353,42.6304888 L25.5882353,35.2485501 C25.5882353,34.1549296 25.9527755,33.2435791 26.6818558,32.5144988 C27.4109362,31.7854184 28.3222867,31.4208782 29.4159072,31.4208782 L35.3396852,31.4208782 C35.6434687,29.7196907 36.4029274,28.3222867 37.6180613,27.2286661 C38.8331952,26.1350456 40.3217343,25.5882353 42.0836785,25.5882353 C43.8456228,25.5882353 45.3341618,26.1350456 46.5492958,27.2286661 C47.7644297,28.3222867 48.5238884,29.7196907 48.8276719,31.4208782 L54.7514499,31.4208782 C55.8450704,31.4208782 56.7564209,31.7854184 57.4855012,32.5144988 C58.2145816,33.2435791 58.5791218,34.1549296 58.5791218,35.2485501 L58.5791218,41.1723281 C60.2803093,41.4761116 61.6777133,42.2355703 62.7713339,43.4507042 C63.8649544,44.6658382 64.4117647,46.1543772 64.4117647,47.9163215 Z M54.7514499,50.8326429 L57.6677713,50.8326429 C58.4576084,50.8326429 59.1259321,50.5592378 59.6727423,50.0124275 C60.2195526,49.4656172 60.4929577,48.7669152 60.4929577,47.9163215 C60.4929577,47.0657277 60.2195526,46.3670257 59.6727423,45.8202154 C59.1259321,45.2734051 58.4576084,45 57.6677713,45 L54.7514499,45 L54.7514499,35.2485501 L45,35.2485501 L45,32.3322287 C45,31.5423916 44.7265949,30.8740679 44.1797846,30.3272577 C43.6329743,29.7804474 42.9342723,29.5070423 42.0836785,29.5070423 C41.2330848,29.5070423 40.5343828,29.7804474 39.9875725,30.3272577 C39.4407622,30.8740679 39.1673571,31.5423916 39.1673571,32.3322287 L39.1673571,35.2485501 L29.4159072,35.2485501 L29.4159072,39.4407622 C31.1778514,40.1090859 32.5904446,41.2027064 33.6536868,42.7216239 C34.716929,44.2405413 35.2485501,45.9721072 35.2485501,47.9163215 C35.2485501,49.8605358 34.716929,51.5921016 33.6536868,53.1110191 C32.5904446,54.6299365 31.1778514,55.723557 29.4159072,56.3918807 L29.4159072,60.5840928 L33.6081193,60.5840928 C34.276443,58.8221486 35.3700635,57.4095554 36.8889809,56.3463132 C38.4078984,55.283071 40.1394642,54.7514499 42.0836785,54.7514499 C44.0278928,54.7514499 45.7594587,55.283071 47.2783761,56.3463132 C48.7972936,57.4095554 49.8909141,58.8221486 50.5592378,60.5840928 L54.7514499,60.5840928 L54.7514499,50.8326429 Z" id="\u5F62\u72B6" fill="#FF926C" fill-rule="nonzero"></path></g></g></svg>
