<svg id="图层_1" data-name="图层 1" xmlns="http://www.w3.org/2000/svg" viewBox="0 0 400 400"><defs></defs><title>【icon】dataease嵌入式-转曲-蓝色</title><polygon class="cls-1" points="99.889 207 40.63 207 40.63 25.117 253.219 25.117 253.219 90.778 239.219 90.778 239.219 39.117 54.63 39.117 54.63 193 99.889 193 99.889 207"/><polygon class="cls-1" points="164.703 375.088 14.283 375.088 14.283 238.998 93.889 238.998 93.889 255.998 31.283 255.998 31.283 358.088 147.703 358.088 147.703 327.667 164.703 327.667 164.703 375.088"/><circle class="cls-1" cx="313.1675" cy="296.3191" r="61.9999"/><path class="cls-1" d="M241.8015,311.6538H107.6035V96.0532H337.0278V227.3447a72.95,72.95,0,0,1,22,12.2344V74.0532H85.6035V333.6538H250.4688A72.5264,72.5264,0,0,1,241.8015,311.6538Z"/><path class="cls-2" d="M278.6227,315.9663l22.226-20.6386a5.6075,5.6075,0,0,0,1.7915-4.0592l.27-30.3294a4.2855,4.2855,0,0,1,7.6824-2.5745l38.9549,50.652a5.6073,5.6073,0,0,1-3.975,9.006l-63.6745,5.3545A4.2855,4.2855,0,0,1,278.6227,315.9663Z"/></svg>
