<svg t="1706457458893" class="icon" viewBox="0 0 1024 1024" version="1.1" xmlns="http://www.w3.org/2000/svg" p-id="9669" width="200" height="200"><path d="M512.05743 1024c-69.104294 0-136.152593-13.592415-199.317346-40.206135-60.994534-25.814166-115.70686-62.707864-162.766313-109.767317s-83.953151-101.771779-109.767317-162.766314C13.478512 648.209704 0.000319 581.161405 0.000319 512.057111s13.592415-136.152593 40.206135-199.317345c25.814166-60.994534 62.707864-115.70686 109.767317-162.766314s101.771779-83.953151 162.766313-109.767317C375.904836 13.478193 442.953135 0 512.05743 0c124.844618 0 245.120357 45.460346 338.668154 128.042833 9.480424 8.338204 10.3942 22.730173 2.055995 32.210597s-22.844395 10.3942-32.210597 2.055996A466.294077 466.294077 0 0 0 512.05743 45.68879c-62.936308 0-124.045064 12.335973-181.498718 36.665254-55.51188 23.529727-105.426882 57.110987-148.260122 99.944227s-76.414501 92.748243-99.944228 148.260123C58.025082 388.012047 45.689108 449.006581 45.689108 512.057111c0 62.936308 12.335973 124.045064 36.665254 181.498717 23.529727 55.51188 57.110987 105.426882 99.944228 148.260123 42.83324 42.83324 92.748243 76.414501 148.260122 99.944227 57.453653 24.329281 118.562409 36.665254 181.498718 36.665254 62.936308 0 124.045064-12.335973 181.498717-36.665254 55.51188-23.529727 105.426882-57.110987 148.260123-99.944227 42.83324-42.83324 76.414501-92.748243 99.944227-148.260123 24.215059-57.567875 36.551032-118.562409 36.551032-181.498717 0-101.429113-31.982153-197.83246-92.405577-278.815839-3.426659-4.568879-6.96754-9.137758-10.508422-13.592415-7.881316-9.82309-6.396431-24.215059 3.426659-32.096375 9.82309-7.881316 24.215059-6.396431 32.096375 3.426659 3.883547 4.911545 7.767094 9.937312 11.53642 14.848857 66.477189 88.978918 101.543335 194.748466 101.543335 306.114891 0 69.104294-13.592415 136.152593-40.206135 199.317345-25.814166 60.994534-62.707864 115.70686-109.767318 162.766314s-101.771779 83.953151-162.766313 109.767317c-63.05053 26.727942-130.098829 40.206135-199.203123 40.206135z" p-id="9670"></path><path d="M511.257876 511.029113m-22.844395 0a22.844395 22.844395 0 1 0 45.68879 0 22.844395 22.844395 0 1 0-45.68879 0Z" p-id="9671"></path><path d="M694.013035 511.029113m-22.844395 0a22.844395 22.844395 0 1 0 45.68879 0 22.844395 22.844395 0 1 0-45.68879 0Z" p-id="9672"></path><path d="M329.644937 511.029113m-22.844395 0a22.844395 22.844395 0 1 0 45.68879 0 22.844395 22.844395 0 1 0-45.68879 0Z" p-id="9673"></path></svg>
