<svg t="1706584859042" class="icon" viewBox="0 0 1024 1024" version="1.1" xmlns="http://www.w3.org/2000/svg" p-id="16617" width="200" height="200"><path d="M847.644444 1024H150.755556c-48.355556-5.688889-88.177778-42.666667-93.866667-93.866667V93.866667C62.577778 45.511111 102.4 5.688889 150.755556 0h466.488888l327.111112 327.111111v605.866667c-8.533333 48.355556-48.355556 85.333333-96.711112 91.022222z m0-696.888889h-184.888888c-25.6-2.844444-45.511111-22.755556-45.511112-45.511111V93.866667H196.266667c-25.6-2.844444-45.511111 17.066667-45.511111 42.666666v748.088889c5.688889 22.755556 22.755556 42.666667 45.511111 45.511111h605.866666c25.6-2.844444 45.511111-22.755556 45.511111-45.511111V327.111111z m-128 358.4c-45.511111-2.844444-91.022222-19.911111-125.155555-51.2-68.266667 17.066667-133.688889 36.977778-199.111111 65.422222-54.044444 93.866667-102.4 139.377778-142.222222 139.377778-8.533333 0-17.066667-2.844444-25.6-5.688889-17.066667-8.533333-28.444444-25.6-28.444445-45.511111 0-14.222222 2.844444-56.888889 162.133333-128 36.977778-65.422222 65.422222-136.533333 88.177778-207.644444-19.911111-39.822222-62.577778-139.377778-34.133333-190.577778 11.377778-17.066667 31.288889-28.444444 51.2-28.444445 17.066667 0 34.133333 8.533333 45.511111 22.755556 22.755556 31.288889 19.911111 93.866667-8.533333 190.577778 28.444444 51.2 62.577778 96.711111 105.244444 133.688889 34.133333-8.533333 71.111111-11.377778 105.244445-11.377778 79.644444 0 91.022222 36.977778 91.022222 59.733333-2.844444 56.888889-59.733333 56.888889-85.333334 56.888889zM247.466667 787.911111h5.688889c22.755556-8.533333 42.666667-25.6 54.044444-45.511111-25.6 8.533333-45.511111 25.6-59.733333 45.511111zM469.333333 284.444444h-5.688889c-2.844444 0-5.688889 0-5.688888 2.844445-5.688889 28.444444-2.844444 59.733333 11.377777 85.333333 8.533333-28.444444 8.533333-59.733333 0-88.177778z m14.222223 244.622223v2.844444-2.844444c-17.066667 39.822222-34.133333 79.644444-51.2 116.622222l2.844444-2.844445-2.844444 2.844445c36.977778-14.222222 76.8-25.6 113.777777-34.133333h2.844445c-25.6-25.6-48.355556-54.044444-65.422222-82.488889z m227.555555 88.177777c-14.222222 0-28.444444 0-42.666667 2.844445 17.066667 8.533333 34.133333 11.377778 51.2 14.222222 11.377778 2.844444 22.755556 0 34.133334-2.844444-2.844444-5.688889-8.533333-11.377778-42.666667-14.222223z" fill="#707070" p-id="16618"></path></svg>
