<svg t="1726041468884" class="icon" viewBox="0 0 1024 1024" version="1.1" xmlns="http://www.w3.org/2000/svg" p-id="1539" width="200" height="200"><path d="M926.647887 126.197183h-288.450704c0-72.112676-57.690141-126.197183-126.197183-126.197183s-126.197183 57.690141-126.197183 126.197183h-288.450704c-18.028169 0-32.450704 14.422535-32.450705 32.450704v829.295775c0 18.028169 14.422535 32.450704 32.450705 32.450704h829.295774c18.028169 0 32.450704-14.422535 32.450705-32.450704v-829.295775c0-18.028169-14.422535-32.450704-32.450705-32.450704zM512 64.901408c36.056338 0 64.901408 28.84507 64.901408 64.901409s-28.84507 64.901408-64.901408 64.901408-64.901408-28.84507-64.901408-64.901408 28.84507-64.901408 64.901408-64.901409z m382.197183 894.197184H126.197183V191.098592H252.394366V288.450704c0 18.028169 14.422535 32.450704 32.450704 32.450704h447.098592c18.028169 0 32.450704-14.422535 32.450704-32.450704V191.098592h126.197183v768z" p-id="1540"></path><path d="M385.802817 530.028169H281.239437c-10.816901 0-18.028169 7.211268-18.028169 18.028169V865.352113c0 10.816901 7.211268 18.028169 18.028169 18.028169h104.56338c10.816901 0 18.028169-7.211268 18.028169-18.028169v-317.295775c0-10.816901-7.211268-18.028169-18.028169-18.028169z m0 313.690141H281.239437v-140.619718h104.56338v140.619718z m176.676056-385.802817h-104.56338c-10.816901 0-18.028169 7.211268-18.028169 18.028169v385.802817c0 10.816901 7.211268 18.028169 18.028169 18.028169h104.56338c10.816901 0 18.028169-7.211268 18.028169-18.028169V475.943662c0-7.211268-10.816901-18.028169-18.028169-18.028169z m0 385.802817h-104.56338v-176.676056h104.56338v176.676056z m173.070423-454.309859h-104.563381c-10.816901 0-18.028169 7.211268-18.028169 18.028169V865.352113c0 10.816901 7.211268 18.028169 18.028169 18.028169h104.563381c10.816901 0 18.028169-7.211268 18.028169-18.028169V407.43662c0-10.816901-7.211268-18.028169-18.028169-18.028169z m0 454.309859h-104.563381v-209.126761h104.563381v209.126761z" p-id="1541"></path></svg>
