<svg t="1726041843992" class="icon" viewBox="0 0 1024 1024" version="1.1" xmlns="http://www.w3.org/2000/svg" p-id="7920" width="200" height="200"><path d="M293.55 889.59H169.69c-14.94 0-23.95-8.34-27.99-13.3-6.98-8.58-9.68-19.75-7.41-30.64 36.33-174.51 190.33-301.95 368.12-306.08 2.96 0.11 5.93 0.18 8.92 0.18 3.01 0 6.01-0.08 8.99-0.19 43.47 0.99 85.94 9.17 126.36 24.34 18.09 6.8 38.26-2.36 45.05-20.45 6.79-18.09-2.36-38.26-20.45-45.05-5.79-2.18-11.62-4.21-17.48-6.14 57.9-43.43 95.43-112.62 95.43-190.41 0-131.18-106.72-237.9-237.9-237.9s-237.9 106.72-237.9 237.9c0 77.86 37.59 147.1 95.58 190.52-53.13 17.49-102.98 44.69-146.61 80.57-80 65.8-135.62 157.58-156.61 258.44-6.58 31.6 1.3 64.06 21.63 89.05 20.22 24.87 50.21 39.13 82.27 39.13h123.86c19.32 0 34.98-15.66 34.98-34.98 0.01-19.33-15.66-34.99-34.98-34.99z m49.86-587.75c0-92.6 75.33-167.93 167.93-167.93s167.93 75.33 167.93 167.93c0 89.85-70.94 163.45-159.75 167.73-2.72-0.05-5.45-0.09-8.18-0.09-2.74 0-5.47 0.04-8.2 0.09-88.81-4.3-159.73-77.88-159.73-167.73z"  p-id="7921"></path><path d="M932.36 666.75c-14.98-33.5-48.71-55.2-86.02-55.29H737.01c-39.36 0-73.7 23.2-87.51 59.14-1.84 4.78-4.09 10.81-6.43 17.83H414a35 35 0 0 0-25.1 10.61l-60.1 61.9c-13.24 13.63-13.17 35.34 0.15 48.89l61.22 62.29a35 35 0 0 0 24.95 10.46h113.7c19.32 0 34.98-15.66 34.98-34.98 0-19.32-15.66-34.98-34.98-34.98h-99.03l-26.99-27.46 25.99-26.77H669.3c16.12 0 30.15-11.01 33.98-26.67 2.83-11.56 6.38-22.67 11.52-36.03 3.39-8.81 11.89-14.27 22.29-14.27H846.26c9.89 0.02 18.41 5.34 22.22 13.88 9.39 21.01 20.61 53.54 20.69 89.19 0.08 35.91-11.12 69.18-20.53 90.78-3.8 8.71-12.38 14.32-21.97 14.32H736.18c-9.68-0.02-18.74-6.25-22.56-15.49-4.09-9.92-7.64-21.25-10.84-34.63-4.5-18.79-23.38-30.38-42.17-25.88-18.79 4.5-30.38 23.38-25.88 42.17 4.06 16.97 8.71 31.69 14.21 45.02 14.69 35.62 48.87 58.7 87.16 58.79h110.64c37.35 0 71.1-22.09 86.03-56.33 12.09-27.73 26.48-70.86 26.37-118.9-0.11-47.93-14.63-90.4-26.78-117.59z"  p-id="7922"></path><path d="M772.67 784.63a44.78 44.78 0 1 0 89.56 0 44.78 44.78 0 1 0-89.56 0Z"  p-id="7923"></path></svg>
