<svg t="1706584364867" class="icon" viewBox="0 0 1024 1024" version="1.1" xmlns="http://www.w3.org/2000/svg" p-id="8946" width="200" height="200"><path d="M744.727273 802.909091c-38.493091 0-69.818182-31.325091-69.818182-69.818182s31.325091-69.818182 69.818182-69.818182 69.818182 31.325091 69.818182 69.818182-31.325091 69.818182-69.818182 69.818182z m110.778182 14.871273A138.845091 138.845091 0 0 0 884.363636 733.090909c0-77.009455-62.626909-139.636364-139.636363-139.636364s-139.636364 62.626909-139.636364 139.636364 62.626909 139.636364 139.636364 139.636364c19.851636 0 38.679273-4.212364 55.784727-11.706182 0.418909 0.465455 0.558545 1.047273 0.977455 1.489454l69.818181 69.818182c6.818909 6.818909 15.755636 10.216727 24.692364 10.216728a34.955636 34.955636 0 0 0 24.692364-59.601455l-65.186909-65.163636zM884.363636 372.363636a11.636364 11.636364 0 0 1-11.636363 11.636364H651.636364a11.636364 11.636364 0 0 1-11.636364-11.636364V151.272727A11.636364 11.636364 0 0 1 651.636364 139.636364h221.090909a11.636364 11.636364 0 0 1 11.636363 11.636363V372.363636z m-11.636363-302.545454H651.636364c-44.916364 0-81.454545 36.538182-81.454546 81.454545V372.363636c0 44.916364 36.538182 81.454545 81.454546 81.454546h221.090909c44.916364 0 81.454545-36.538182 81.454545-81.454546V151.272727C954.181818 106.356364 917.643636 69.818182 872.727273 69.818182z m-488.727273 302.545454a11.636364 11.636364 0 0 1-11.636364 11.636364H151.272727A11.636364 11.636364 0 0 1 139.636364 372.363636V151.272727a11.636364 11.636364 0 0 1 11.636363-11.636363H372.363636a11.636364 11.636364 0 0 1 11.636364 11.636363V372.363636zM372.363636 69.818182H151.272727C106.356364 69.818182 69.818182 106.356364 69.818182 151.272727V372.363636c0 44.916364 36.538182 81.454545 81.454545 81.454546H372.363636c44.916364 0 81.454545-36.538182 81.454546-81.454546V151.272727C453.818182 106.356364 417.28 69.818182 372.363636 69.818182z m11.636364 802.909091a11.636364 11.636364 0 0 1-11.636364 11.636363H151.272727a11.636364 11.636364 0 0 1-11.636363-11.636363V651.636364a11.636364 11.636364 0 0 1 11.636363-11.636364H372.363636a11.636364 11.636364 0 0 1 11.636364 11.636364v221.090909z m-11.636364-302.545455H151.272727C106.356364 570.181818 69.818182 606.72 69.818182 651.636364v221.090909C69.818182 917.643636 106.356364 954.181818 151.272727 954.181818H372.363636c44.916364 0 81.454545-36.538182 81.454546-81.454545V651.636364c0-44.916364-36.538182-81.454545-81.454546-81.454546z" fill="#707070" p-id="8947"></path></svg>
