<svg t="1706584217646" class="icon" viewBox="0 0 1024 1024" version="1.1" xmlns="http://www.w3.org/2000/svg" p-id="6790" width="200" height="200"><path d="M561.032258 932.645161H124.387097V87.225806h750.451613v516.129033c0 19.612903 16 35.096774 35.612903 35.096774s35.612903-16 35.612903-35.096774v-516.129033c0.516129-38.709677-32-70.193548-71.741935-70.193548H124.387097c-39.741935 0-72.258065 31.483871-72.258065 70.193548v844.903226c0 38.709677 32.516129 70.193548 72.258065 70.193549h436.645161c20.129032 0 35.612903-16 35.612903-35.096775 0-19.096774-16-34.580645-35.612903-34.580645z" fill="#707070" p-id="6791"></path><path d="M784 301.419355c0-20.129032-16-35.612903-35.612903-35.612903H286.451613c-20.129032 0-35.612903 16-35.612903 35.612903 0 20.129032 16 35.612903 35.612903 35.612903H748.387097c20.129032 0 35.612903-16 35.612903-35.612903zM286.451613 468.645161c-20.129032 0-35.612903 16-35.612903 35.612904 0 19.612903 16 35.612903 35.612903 35.612903h247.225806c20.129032 0 35.612903-16 35.612904-35.612903 0-19.612903-16-35.612903-35.612904-35.612904H286.451613z m666.322581 458.83871l-107.354839-89.806452c9.290323-20.129032 14.451613-42.322581 14.451613-64.516129 0-86.193548-69.677419-156.387097-156.387097-156.387096-86.193548 0-156.387097 69.677419-156.387097 156.387096 0 86.193548 69.677419 156.387097 156.387097 156.387097 33.032258 0 65.032258-10.322581 91.870968-29.935484l4.645161-4.645161 105.806452 88.774193c14.967742 12.903226 38.193548 10.83871 50.580645-4.645161 12.903226-15.483871 11.870968-38.709677-3.612903-51.612903z m-249.290323-66.064516c-48.516129 0-87.741935-39.225806-87.741936-87.741936s39.225806-87.741935 87.741936-87.741935 87.741935 39.225806 87.741935 87.741935c0.516129 48-39.225806 87.741935-87.741935 87.741936z" fill="#707070" p-id="6792"></path></svg>
