<svg id="图层_1" data-name="图层 1" xmlns="http://www.w3.org/2000/svg" viewBox="0 0 400 400"><defs></defs><title>【icon】dataease嵌入式-转曲-蓝色</title><circle class="cls-1" cx="321.3451" cy="309.0854" r="62.0001"/><path class="cls-1" d="M248.3452,309.085c0-.9168.0357-1.8247.0694-2.7334H51.8274a11.4281,11.4281,0,0,1-11.415-11.4151V98.7451A11.4281,11.4281,0,0,1,51.8274,87.33H335.8489a11.428,11.428,0,0,1,11.4145,11.415v142.11a73.069,73.069,0,0,1,22,13.2288V98.7451A33.4528,33.4528,0,0,0,335.8489,65.33H51.8274a33.4529,33.4529,0,0,0-33.415,33.415V294.9365a33.453,33.453,0,0,0,33.415,33.4151H250.9446A72.7963,72.7963,0,0,1,248.3452,309.085Z"/><path class="cls-2" d="M286.8,328.7325l22.226-20.6386a5.6075,5.6075,0,0,0,1.7915-4.0592l.27-30.3294a4.2855,4.2855,0,0,1,7.6824-2.5745l38.9549,50.652a5.6073,5.6073,0,0,1-3.975,9.006l-63.6744,5.3545A4.2855,4.2855,0,0,1,286.8,328.7325Z"/><rect class="cls-1" x="132.5767" y="112.2024" width="172.8374" height="28.3404"/><rect class="cls-1" x="83.414" y="159.1811" width="220.8478" height="76.3404"/><rect class="cls-1" x="83.414" y="253.1385" width="111.1757" height="28.3404"/></svg>
